<svg width="89" height="36" viewBox="0 0 89 36" fill="none" xmlns="http://www.w3.org/2000/svg">
<path d="M12.304 35.24C10.32 35.24 8.56 34.856 7.024 34.088C5.52 33.32 4.256 32.28 3.232 30.968C2.24 29.656 1.488 28.168 0.976 26.504C0.464 24.808 0.208 23.048 0.208 21.224C0.208 19.112 0.544 17.048 1.216 15.032C1.92 13.016 2.88 11.144 4.096 9.416C5.312 7.688 6.736 6.168 8.368 4.856C10 3.544 11.76 2.52 13.648 1.784C15.536 1.048 17.488 0.679998 19.504 0.679998C21.488 0.679998 23.232 1.08 24.736 1.88C26.24 2.648 27.488 3.704 28.48 5.048C29.504 6.36 30.256 7.864 30.736 9.56C31.248 11.224 31.504 12.968 31.504 14.792C31.504 16.872 31.168 18.92 30.496 20.936C29.824 22.92 28.88 24.776 27.664 26.504C26.448 28.232 25.024 29.752 23.392 31.064C21.792 32.376 20.048 33.4 18.16 34.136C16.272 34.872 14.32 35.24 12.304 35.24ZM12.976 32.216C15.088 32.216 17.056 31.72 18.88 30.728C20.736 29.704 22.352 28.36 23.728 26.696C25.104 25.032 26.176 23.192 26.944 21.176C27.744 19.128 28.144 17.08 28.144 15.032C28.144 13.016 27.792 11.16 27.088 9.464C26.384 7.736 25.344 6.36 23.968 5.336C22.624 4.28 20.912 3.752 18.832 3.752C16.72 3.752 14.736 4.248 12.88 5.24C11.024 6.2 9.408 7.528 8.032 9.224C6.656 10.888 5.568 12.744 4.768 14.792C4 16.808 3.616 18.856 3.616 20.936C3.616 22.952 3.968 24.824 4.672 26.552C5.376 28.248 6.416 29.624 7.792 30.68C9.168 31.704 10.896 32.216 12.976 32.216ZM73.2438 0.919998H76.5558L69.9318 32.024H88.5558L87.9318 35H65.9958L73.2438 0.919998Z" fill="#0182B8"/>
<path d="M41.5206 35.48C39.9526 35.48 38.5606 35.144 37.3446 34.472C36.1606 33.8 35.2166 32.872 34.5126 31.688C33.8406 30.472 33.5046 29.096 33.5046 27.56C33.5046 26.152 33.7606 24.856 34.2726 23.672C34.8166 22.488 35.5686 21.4 36.5286 20.408C37.4886 19.416 38.6086 18.472 39.8886 17.576C41.1686 16.68 42.5446 15.8 44.0166 14.936L45.6006 16.952C43.8086 17.976 42.2406 19.016 40.8966 20.072C39.5526 21.128 38.5126 22.232 37.7766 23.384C37.0726 24.504 36.7206 25.768 36.7206 27.176C36.7206 28.904 37.2326 30.28 38.2566 31.304C39.3126 32.296 40.6246 32.792 42.1926 32.792C43.7606 32.792 45.2806 32.344 46.7526 31.448C48.2566 30.552 49.6486 29.304 50.9286 27.704C52.2406 26.072 53.3606 24.184 54.2886 22.04C55.2166 19.864 55.9046 17.528 56.3526 15.032H59.3286C58.7846 17.976 57.9206 20.696 56.7366 23.192C55.5526 25.688 54.1446 27.848 52.5126 29.672C50.9126 31.496 49.1686 32.92 47.2806 33.944C45.3926 34.968 43.4726 35.48 41.5206 35.48ZM43.6326 17.384C42.7366 16.072 42.0006 14.936 41.4246 13.976C40.8806 12.984 40.4806 12.104 40.2246 11.336C40.0006 10.536 39.8886 9.784 39.8886 9.08C39.8886 7.48 40.3366 6.04 41.2326 4.76C42.1606 3.48 43.3766 2.456 44.8806 1.688C46.4166 0.887999 48.0646 0.487998 49.8246 0.487998C50.9766 0.487998 52.0486 0.695998 53.0406 1.112C54.0326 1.496 54.8966 2.072 55.6326 2.84C56.4006 3.576 57.0086 4.472 57.4566 5.528L55.2006 7.544C54.7206 6.2 53.9526 5.112 52.8966 4.28C51.8406 3.448 50.6406 3.032 49.2966 3.032C48.1766 3.032 47.1366 3.288 46.1766 3.8C45.2166 4.312 44.4326 5 43.8246 5.864C43.2486 6.728 42.9606 7.64 42.9606 8.6C42.9606 9.048 43.0406 9.576 43.2006 10.184C43.3926 10.792 43.6966 11.496 44.1126 12.296C44.5606 13.064 45.1526 13.992 45.8886 15.08L59.8086 35H55.6806L43.6326 17.384ZM56.8326 15.032H64.0326L63.4566 17.672H56.3046L56.8326 15.032Z" fill="#0AC2F4"/>
</svg>
